<svg width="24" height="24" viewBox="0 0 24 24" fill="none" xmlns="http://www.w3.org/2000/svg">
<path d="M18.5508 9.59005H18.144V7.62745C18.1437 7.61498 18.1425 7.60255 18.1404 7.59025C18.141 7.51141 18.1128 7.43505 18.0612 7.37545L14.796 3.64525L14.7936 3.64285C14.774 3.62173 14.7519 3.60318 14.7276 3.58765L14.706 3.57445C14.6853 3.56292 14.6633 3.55366 14.6406 3.54685L14.6226 3.54085C14.5977 3.53463 14.5721 3.53141 14.5464 3.53125H6.5202C6.1536 3.53125 5.856 3.82945 5.856 4.19545V9.58945H5.4492C4.9248 9.58945 4.5 10.0142 4.5 10.5386V15.4754C4.5 15.9992 4.9254 16.4246 5.4492 16.4246H5.856V19.8038C5.856 20.1698 6.1536 20.468 6.5202 20.468H17.4798C17.8458 20.468 18.144 20.1698 18.144 19.8038V16.4246H18.5508C19.0746 16.4246 19.5 15.9998 19.5 15.4754V10.5386C19.5 10.0148 19.0752 9.59005 18.5508 9.59005ZM6.5202 4.19545H14.214V7.59385C14.214 7.77745 14.3628 7.92565 14.5464 7.92565H17.4804V9.58945H6.5202V4.19545V4.19545ZM11.4894 13.2962C10.683 13.0082 10.1508 12.5618 10.1508 11.8568C10.1508 11.0294 10.8492 10.4036 11.9862 10.4036C12.5406 10.4036 12.936 10.5116 13.224 10.6478L12.9792 11.5256C12.6655 11.3728 12.3208 11.2942 11.9718 11.2958C11.4966 11.2958 11.2662 11.5184 11.2662 11.7632C11.2662 12.0728 11.532 12.209 12.1656 12.4466C13.0224 12.7634 13.4178 13.2092 13.4178 13.8932C13.4178 14.7068 12.7992 15.3974 11.4678 15.3974C10.9134 15.3974 10.3668 15.2462 10.0932 15.095L10.3164 14.1956C10.6932 14.388 11.109 14.4915 11.532 14.498C12.036 14.498 12.3024 14.2886 12.3024 13.9724C12.3024 13.67 12.0726 13.4978 11.4894 13.2962V13.2962ZM5.7738 12.965C5.7738 11.3168 6.954 10.403 8.4216 10.403C8.9904 10.403 9.4218 10.5176 9.6162 10.6118L9.3858 11.4824C9.09435 11.3601 8.78088 11.2988 8.4648 11.3024C7.6014 11.3024 6.9252 11.8274 6.9252 12.9068C6.9252 13.871 7.5006 14.483 8.472 14.483C8.8104 14.483 9.1704 14.4188 9.393 14.3246L9.552 15.188C9.3576 15.281 8.8968 15.3968 8.3142 15.3968C6.6372 15.3974 5.7738 14.3468 5.7738 12.965V12.965ZM17.4798 19.625H6.5202V16.4252H17.4798V19.625V19.625ZM16.593 15.3254H15.312L13.758 10.475H14.9598L15.5496 12.5264C15.7146 13.109 15.8658 13.6562 15.981 14.2604H16.0026C16.1253 13.6839 16.2716 13.1126 16.4412 12.548L17.0604 10.4756H18.2256L16.593 15.3254V15.3254Z" fill="#262933"/>
</svg>
